<svg id="Group_175" data-name="Group 175" xmlns="http://www.w3.org/2000/svg" width="276.087" height="221.085" viewBox="0 0 276.087 221.085">
  <g id="Group_20" data-name="Group 20">
    <g id="Group_131" data-name="Group 131">
      <g id="Group_130" data-name="Group 130" transform="translate(73.917)">
        <path id="Path_107" data-name="Path 107" d="M164.345,0c-20.7,11.782-49.463,11.607-51.942,11.57h-.174c-2.478.036-31.236.212-51.941-11.57,0,0-47.059,94.257,51.873,157.558h.313C211.4,94.257,164.346,0,164.346,0" transform="translate(-49.103 0)" fill="#046a38"/>
        <path id="Path_108" data-name="Path 108" d="M158.574,5.847A156.569,156.569,0,0,1,109.718,14.7v-.01h-.28v.01A135.97,135.97,0,0,1,60.8,5.128c-2.69,7.062-18.652,51.1,4.428,94.987a110.372,110.372,0,0,0,44.213,44.771h.28a109.818,109.818,0,0,0,44.211-44.771c20.767-39.79,9.261-80.136,6.425-89.1-.682-2.152-1.316-3.923-1.778-5.163" transform="translate(-46.291 3.776)" fill="#fff"/>
        <path id="Path_109" data-name="Path 109" d="M155.929,7.276a150.883,150.883,0,0,1-47.087,8.53V15.8h-.269v.01A131.1,131.1,0,0,1,61.688,6.58C59.1,13.385,43.713,55.827,65.956,98.125a106.364,106.364,0,0,0,42.61,43.147h.269a105.845,105.845,0,0,0,42.61-43.147c20.015-38.351,8.926-77.234,6.191-85.874-.658-2.072-1.269-3.78-1.714-4.975" transform="translate(-45.424 4.846)" fill="#041e42"/>
        <path id="Path_110" data-name="Path 110" d="M71.406,28.743l-.359-.314V26.187l.359-.314q7.666.359,11.836.359,1.563,0,12.418-.359,3.5-.089,5.065-.089A30.586,30.586,0,0,1,110.32,27a11.21,11.21,0,0,1,5.694,4.28,11.859,11.859,0,0,1,2.151,6.972,14.075,14.075,0,0,1-3.586,9.235q-3.587,4.259-11.657,6.1a48.189,48.189,0,0,1,7.988,1.3,15.336,15.336,0,0,1,5.425,2.622,12.3,12.3,0,0,1,3.609,4.595,15.308,15.308,0,0,1,1.321,6.547,20.581,20.581,0,0,1-.9,5.916,17.5,17.5,0,0,1-3.3,5.963,22.877,22.877,0,0,1-5.807,5.065,25.645,25.645,0,0,1-6.97,3.049,35.349,35.349,0,0,1-8.856.941q-1.076,0-6.456-.224-5.962-.135-6.455-.134-3.05,0-7.488.358l-.358-.358V87.746l.358-.448a12.758,12.758,0,0,0,3-1.615,35.158,35.158,0,0,0,.649-7.936q.248-7.486.247-11.431V49.862l-.045-10.176q0-3.318-.089-5.4a26.35,26.35,0,0,0-.247-2.982,2.376,2.376,0,0,0-.521-1.255,2.876,2.876,0,0,0-1.009-.6,10.17,10.17,0,0,0-2.219-.425ZM87.5,52.279q2.243.175,5.067.174,9.278,0,12.911-3.318a11.7,11.7,0,0,0,3.631-9.1,11.061,11.061,0,0,0-1.389-5.715,8.865,8.865,0,0,0-4.371-3.61,21.363,21.363,0,0,0-8.092-1.254,35.9,35.9,0,0,0-7.352.672q-.4,4.035-.4,14.078Zm.09,32.681a31.071,31.071,0,0,0,7.083.807,20.431,20.431,0,0,0,10.042-2.063,12.679,12.679,0,0,0,5.357-5.715,18.388,18.388,0,0,0,1.726-7.958A14.456,14.456,0,0,0,108.153,59.7q-3.647-3.876-15.8-3.878-2.019,0-4.843.174V71.275Z" transform="translate(-32.94 18.976)" fill="#fff"/>
        <path id="Path_111" data-name="Path 111" d="M79.5,73.093l-.094-.031-.052-.425.052-.052a13.084,13.084,0,0,0,1.314-.483c.531-.222.91-.392,1.139-.51l.135.052q-.083,2.277-.083,2.733v1.929q0,.711.016,1.337a5.281,5.281,0,0,0,.047.74.348.348,0,0,0,.106.174.416.416,0,0,0,.21.08c.09.012.359.031.806.056l.036.042v.233l-.036.042q-1.138-.042-1.606-.042c-.231,0-.811.014-1.736.042l-.036-.042v-.233l.042-.042q.779-.057.891-.083a.332.332,0,0,0,.174-.092.532.532,0,0,0,.1-.247,9.685,9.685,0,0,0,.061-1.075c.016-.6.023-.9.023-.915V72.595c0-.087-.036-.13-.092-.13a.331.331,0,0,0-.057.01q-.037.01-.229.094L80.1,72.8c-.214.094-.417.193-.608.3" transform="translate(-26.823 52.727)" fill="#fff"/>
        <path id="Path_112" data-name="Path 112" d="M83.427,75.24a2.585,2.585,0,0,1-.877-.695,1.56,1.56,0,0,1-.3-.964,1.833,1.833,0,0,1,.589-1.365,2.192,2.192,0,0,1,1.6-.57,2.554,2.554,0,0,1,.953.174,1.461,1.461,0,0,1,.677.537,1.4,1.4,0,0,1,.24.792,1.543,1.543,0,0,1-.281.868,3.136,3.136,0,0,1-.992.851v.047a7.092,7.092,0,0,1,.9.493,1.556,1.556,0,0,1,.481.549,1.653,1.653,0,0,1,.188.8,2.205,2.205,0,0,1-.358,1.188,2.329,2.329,0,0,1-.938.868,2.62,2.62,0,0,1-1.205.3,2.22,2.22,0,0,1-1.5-.509,1.7,1.7,0,0,1-.592-1.356,1.8,1.8,0,0,1,.408-1.182,2.778,2.778,0,0,1,1.005-.773Zm.42.188a2.318,2.318,0,0,0-.853.781,1.893,1.893,0,0,0-.238.95,1.6,1.6,0,0,0,.415,1.167,1.441,1.441,0,0,0,1.07.424,1.6,1.6,0,0,0,.811-.208,1.314,1.314,0,0,0,.543-.57,1.735,1.735,0,0,0,.174-.787,1.157,1.157,0,0,0-.429-.957,7,7,0,0,0-1.5-.8m.79-.686a2.143,2.143,0,0,0,.754-.695,1.492,1.492,0,0,0,.2-.755,1.289,1.289,0,0,0-.347-.946,1.232,1.232,0,0,0-.92-.347,1.357,1.357,0,0,0-.913.309,1.073,1.073,0,0,0-.365.868,1.176,1.176,0,0,0,.236.729,4.361,4.361,0,0,0,1.355.846" transform="translate(-24.865 52.764)" fill="#fff"/>
        <path id="Path_113" data-name="Path 113" d="M86.905,75.24a2.584,2.584,0,0,1-.877-.695,1.56,1.56,0,0,1-.3-.964,1.833,1.833,0,0,1,.589-1.365,2.192,2.192,0,0,1,1.6-.57,2.554,2.554,0,0,1,.953.174,1.46,1.46,0,0,1,.677.537,1.4,1.4,0,0,1,.24.792,1.544,1.544,0,0,1-.281.868,3.135,3.135,0,0,1-.992.851v.047a7.093,7.093,0,0,1,.9.493,1.557,1.557,0,0,1,.481.549,1.653,1.653,0,0,1,.188.8,2.205,2.205,0,0,1-.358,1.188,2.328,2.328,0,0,1-.938.868,2.62,2.62,0,0,1-1.205.3,2.22,2.22,0,0,1-1.5-.509,1.7,1.7,0,0,1-.592-1.356A1.8,1.8,0,0,1,85.9,76.06a2.778,2.778,0,0,1,1.005-.773Zm.42.188a2.319,2.319,0,0,0-.853.781,1.891,1.891,0,0,0-.238.95,1.6,1.6,0,0,0,.415,1.167,1.441,1.441,0,0,0,1.07.424,1.594,1.594,0,0,0,.811-.208,1.314,1.314,0,0,0,.544-.57,1.736,1.736,0,0,0,.174-.787,1.157,1.157,0,0,0-.429-.957,7,7,0,0,0-1.5-.8m.79-.686a2.142,2.142,0,0,0,.754-.695,1.493,1.493,0,0,0,.2-.755,1.29,1.29,0,0,0-.347-.946,1.232,1.232,0,0,0-.92-.347,1.357,1.357,0,0,0-.913.309,1.073,1.073,0,0,0-.365.868,1.176,1.176,0,0,0,.236.729,4.36,4.36,0,0,0,1.354.846" transform="translate(-22.303 52.764)" fill="#fff"/>
        <path id="Path_114" data-name="Path 114" d="M89,75.765A13.348,13.348,0,0,1,89.1,74.1a3.65,3.65,0,0,1,.413-1.32,2.265,2.265,0,0,1,.8-.868,2.09,2.09,0,0,1,1.094-.288,2.118,2.118,0,0,1,1.216.36,2,2,0,0,1,.759,1.1,7.091,7.091,0,0,1,.231,2.021,5.745,5.745,0,0,1-.637,3.061,2.1,2.1,0,0,1-2.764.738A1.942,1.942,0,0,1,89.5,78.2a3.145,3.145,0,0,1-.389-1.091,7.73,7.73,0,0,1-.113-1.342m.894-.3a10.221,10.221,0,0,0,.148,1.8,2.236,2.236,0,0,0,.495,1.169,1.108,1.108,0,0,0,.823.347,1.025,1.025,0,0,0,.771-.316,2.111,2.111,0,0,0,.453-1.087,10.652,10.652,0,0,0,.142-1.91,7.654,7.654,0,0,0-.337-2.629,1.158,1.158,0,0,0-1.118-.853,1.1,1.1,0,0,0-1.028.66,7.121,7.121,0,0,0-.347,2.806" transform="translate(-19.722 52.751)" fill="#fff"/>
        <path id="Path_115" data-name="Path 115" d="M63.905,10.648c.174-.207.221-.24.266-.222s.061.063.066.32c0,.316.09,3.742.174,5.017.049.747.233.941.38,1.042a1.174,1.174,0,0,0,.293.151c.047.016.076.033.064.069s-.09.035-.174,0c-.116-.038-.682-.231-1.216-.432-.146-.059-.229-.089-.215-.134s.04-.035.073-.031.122-.047.116-.174c-.028-.682-.05-1.363-.071-2.046a.07.07,0,0,0-.052-.068q-.813-.292-1.624-.6a.082.082,0,0,0-.1.03c-.313.372-.627.74-.941,1.108a1.583,1.583,0,0,0-.293.445c-.056.144.082.271.212.32l.076.03c.054.019.071.043.061.071s-.068.042-.137.016c-.184-.069-.505-.217-.59-.25s-.512-.174-.868-.313c-.1-.04-.141-.071-.123-.115s.047-.031.087-.016.161.054.226.071c.37.094.629-.122.9-.429Q62.239,12.6,63.9,10.653m-.286,3.19c.038.014.045,0,.049-.04V11.582c0-.122-.035-.135-.111-.04q-.7.867-1.389,1.714c-.03.03-.019.05,0,.059q.719.268,1.44.521" transform="translate(-41.606 7.674)" fill="#fff"/>
        <path id="Path_116" data-name="Path 116" d="M64.766,13.519c.375-1.148.443-1.351.505-1.592s.045-.392-.174-.521a1.532,1.532,0,0,0-.245-.106c-.031-.01-.056-.035-.045-.064s.056-.047.137-.021c.333.111.794.285.832.3.089.028.564.156,1.011.3a4.3,4.3,0,0,1,2.749,1.745,2.765,2.765,0,0,1,.2,2.1,3.056,3.056,0,0,1-1.433,1.863,3.241,3.241,0,0,1-2.619.149c-.335-.1-.743-.255-1.071-.384s-.592-.238-.63-.252-.148-.045-.314-.092-.339-.1-.455-.134c-.085-.03-.12-.056-.1-.1s.03-.042.076-.026a1.141,1.141,0,0,0,.243.05c.174.021.257-.128.358-.332.139-.3.33-.868.561-1.584.142-.429.283-.868.425-1.294m.379,1c-.252.78-.462,1.46-.5,1.6a1.622,1.622,0,0,0-.1.589c.056.174.309.425,1.228.71a2.763,2.763,0,0,0,2.061-.137,2.606,2.606,0,0,0,1.132-1.6,2.76,2.76,0,0,0-.186-2.084,3.335,3.335,0,0,0-2.2-1.582,2.044,2.044,0,0,0-.5-.1.138.138,0,0,0-.137.118c-.089.248-.33,1-.512,1.563-.1.3-.195.61-.294.912" transform="translate(-38.787 8.25)" fill="#fff"/>
        <path id="Path_117" data-name="Path 117" d="M71.292,18.2c.695-.906,2.3-3.324,2.573-3.838a1.224,1.224,0,0,0,.129-.273.189.189,0,0,0-.063-.194.949.949,0,0,0-.283-.092c-.045,0-.082-.026-.073-.063s.057-.05.174-.026c.3.064.649.16.741.174.045.009.377.052.6.1.083.017.127.042.118.08s-.04.047-.1.035a.721.721,0,0,0-.384.017c-.115.049-.254.155-.568.627-.127.194-.695,1.025-1.3,1.87-.712,1-1.249,1.736-1.514,2.07-.323.4-.382.521-.462.5s-.111-.137-.174-.533q-.438-2.532-.808-5.062c-.064-.462-.156-.571-.4-.712a1.227,1.227,0,0,0-.28-.1c-.045-.01-.054-.036-.047-.068s.089-.033.21,0c.361.09.787.219.877.24s.42.078.709.146c.137.031.2.063.193.1s-.035.047-.089.035a.951.951,0,0,0-.3-.031.157.157,0,0,0-.134.129A2.932,2.932,0,0,0,70.7,14q.274,2.1.6,4.2" transform="translate(-34.324 9.34)" fill="#fff"/>
        <path id="Path_118" data-name="Path 118" d="M74.126,17.3c-.134.733-.245,1.334-.262,1.66-.017.226,0,.4.234.474.109.035.281.082.347.1s.061.031.056.054-.05.054-.139.038c-.439-.075-.939-.189-.979-.2s-.547-.08-.787-.125c-.089-.016-.125-.038-.116-.083s.024-.043.073-.035a1.287,1.287,0,0,0,.245.014c.174,0,.238-.158.311-.373a16.773,16.773,0,0,0,.347-1.641c.083-.448.174-.893.252-1.339.224-1.186.264-1.4.294-1.646s-.019-.4-.174-.472a.9.9,0,0,0-.231-.076.05.05,0,0,1-.052-.057c.007-.03.049-.054.134-.038.252.049.728.161.766.174s.521.071.752.113c.085.012.12.035.111.082s-.038.04-.07.033a1.819,1.819,0,0,0-.194-.009c-.214,0-.3.118-.361.382s-.1.455-.316,1.641q-.122.672-.245,1.339" transform="translate(-31.887 9.976)" fill="#fff"/>
        <path id="Path_119" data-name="Path 119" d="M77.167,17.875c-.106.735-.193,1.341-.2,1.667-.009.226.016.4.252.465a3.668,3.668,0,0,0,.358.082c.047,0,.059.031.057.054s-.049.056-.137.043c-.443-.061-.945-.156-.985-.163s-.55-.057-.792-.094c-.087-.014-.125-.035-.118-.08s.023-.043.071-.036a1.155,1.155,0,0,0,.245,0c.174,0,.231-.174.3-.386.089-.316.174-.92.288-1.655l.484-3.237c-.38-.05-.761-.1-1.139-.158-.478-.068-.67-.045-.825.118a1.474,1.474,0,0,0-.174.215c-.033.057-.059.068-.089.063s-.035-.028-.028-.075c.014-.076.276-.707.3-.766s.071-.137.1-.132a1.463,1.463,0,0,0,.323.146c.217.059.505.12.6.135q1.438.224,2.877.415a3.074,3.074,0,0,0,.551.033c.118,0,.189-.016.221-.01s.033.05.026.1c-.028.231-.118.757-.13.842s-.035.1-.066.092-.05-.03-.045-.137v-.087c0-.233-.158-.431-.894-.545q-.485-.073-.967-.151-.235,1.62-.467,3.24" transform="translate(-30.227 10.163)" fill="#fff"/>
        <path id="Path_120" data-name="Path 120" d="M80.853,14.686c.118-.245.153-.288.2-.283s.073.045.142.293c.078.3,1.009,3.6,1.412,4.81.231.71.457.853.622.912a1.184,1.184,0,0,0,.32.071c.049,0,.08.014.078.052s-.078.056-.174.049c-.122-.009-.712-.054-1.268-.116-.153-.021-.243-.03-.238-.075s.028-.045.061-.049.1-.076.066-.2q-.289-.979-.571-1.96a.072.072,0,0,0-.068-.054c-.568-.052-1.137-.109-1.705-.174a.083.083,0,0,0-.085.052c-.208.438-.417.868-.629,1.309a1.56,1.56,0,0,0-.174.5c-.017.153.144.241.281.257h.08c.057,0,.08.023.076.054s-.056.057-.129.049c-.194-.021-.538-.083-.627-.094s-.535-.036-.913-.083c-.1-.012-.151-.033-.144-.08s.036-.042.076-.036.174.012.236.012c.375,0,.571-.276.761-.643q1.185-2.284,2.3-4.586m.512,3.159c.04,0,.042-.019.036-.05q-.279-1.076-.543-2.152c-.028-.12-.066-.123-.116-.012q-.448,1.005-.906,2.007c-.019.036,0,.054.017.056.505.054,1.011.1,1.513.151" transform="translate(-28.212 10.608)" fill="#fff"/>
        <path id="Path_121" data-name="Path 121" d="M88.1,19.789c.026.28.073.714.42.828a1.818,1.818,0,0,0,.521.076c.04,0,.064,0,.063.038s-.073.069-.174.068c-.174,0-1.054-.023-1.354-.054-.186-.021-.226-.045-.224-.083s.017-.045.057-.052.052-.139.04-.278q-.143-2.011-.274-4.023h-.024q-1.016,1.987-2.094,3.954c-.184.332-.212.4-.285.4s-.094-.082-.234-.366c-.195-.389-.813-1.761-.846-1.841-.069-.142-.844-2.047-.912-2.257h-.031q-.271,1.782-.551,3.562c-.017.123-.026.262-.035.394a.25.25,0,0,0,.195.252,1.511,1.511,0,0,0,.3.057c.033,0,.064.019.063.043,0,.054-.052.066-.149.061-.3-.019-.695-.068-.752-.073s-.462,0-.681-.024c-.082,0-.137-.026-.134-.08,0-.023.043-.035.085-.031a1.153,1.153,0,0,0,.245,0c.269-.028.314-.328.368-.618q.466-2.5.908-5c.014-.083.047-.137.094-.134s.076.036.109.123q1.029,2.5,2.15,4.987,1.292-2.376,2.494-4.777c.031-.068.064-.122.118-.12s.076.063.089.21q.2,2.386.424,4.768" transform="translate(-25.605 10.758)" fill="#fff"/>
        <path id="Path_122" data-name="Path 122" d="M88.592,17.059c-.028-1.207-.033-1.424-.054-1.671s-.089-.386-.347-.432a1.488,1.488,0,0,0-.264-.019c-.031,0-.063-.014-.063-.045s.036-.063.123-.064h.868c.174,0,.62-.042.978-.054a1.937,1.937,0,0,1,1.462.38,1.34,1.34,0,0,1,.432.9,1.8,1.8,0,0,1-1.674,1.919,1.752,1.752,0,0,1-.191,0,1.453,1.453,0,0,1-.174,0c-.038,0-.087-.012-.088-.052s.045-.071.214-.076a1.294,1.294,0,0,0,1.318-1.269v-.045a1.635,1.635,0,0,0-.49-1.172,1.358,1.358,0,0,0-1.078-.347.9.9,0,0,0-.333.057c-.045.016-.061.071-.057.148q.047,1.589.09,3.18c.021.741.038,1.353.089,1.676.03.224.083.392.328.417.113.01.292.021.366.017.047,0,.064.023.066.045s-.04.063-.128.066c-.446.016-.959,0-1,0s-.537.038-.78.043c-.089,0-.13-.014-.13-.061s.014-.045.064-.047a1.422,1.422,0,0,0,.241-.036c.161-.033.2-.2.227-.431.031-.325.017-.936,0-1.679l-.031-1.361" transform="translate(-20.555 10.867)" fill="#fff"/>
        <path id="Path_123" data-name="Path 123" d="M92.905,14.848c.073-.26.1-.309.148-.313s.08.031.191.264c.13.287,1.625,3.369,2.233,4.491.347.658.6.759.773.788a1.1,1.1,0,0,0,.328.014c.049,0,.082,0,.087.038s-.068.069-.156.078c-.122.012-.714.071-1.273.106-.155,0-.245.014-.248-.033s.019-.049.052-.059.089-.092.031-.212q-.461-.914-.908-1.832a.071.071,0,0,0-.076-.04q-.854.07-1.712.13a.085.085,0,0,0-.075.068c-.129.465-.26.933-.392,1.4a1.611,1.611,0,0,0-.08.521c.009.155.184.214.321.2h.082c.056,0,.082.009.083.04s-.045.066-.118.069c-.194.014-.543.012-.634.019s-.535.056-.915.076c-.106,0-.155,0-.158-.054s.03-.049.071-.05.174-.017.234-.028c.37-.068.521-.372.637-.766q.771-2.456,1.474-4.918m1.056,3.022c.04,0,.038-.026.028-.057-.309-.672-.611-1.348-.912-2.023-.049-.113-.087-.109-.118,0q-.266,1.068-.544,2.134c-.014.04,0,.056.028.052.505-.035,1.012-.073,1.518-.115" transform="translate(-18.621 10.703)" fill="#fff"/>
        <path id="Path_124" data-name="Path 124" d="M94.737,16.7c-.128-1.2-.153-1.415-.195-1.662s-.12-.375-.38-.4a1.7,1.7,0,0,0-.266,0c-.031,0-.062,0-.066-.038s.031-.066.116-.075c.347-.036.837-.066.877-.073.085-.009.669-.1.908-.129a2.454,2.454,0,0,1,1.457.163,1.363,1.363,0,0,1,.675.972,2.351,2.351,0,0,1-.721,1.9q.912.914,1.91,1.737a1.679,1.679,0,0,0,1.061.408,2.179,2.179,0,0,0,.318-.024c.04,0,.076.014.08.036s-.04.068-.186.09c-.189.028-.38.057-.571.083a1.66,1.66,0,0,1-.884-.023,3.9,3.9,0,0,1-1.235-.981c-.391-.377-.828-.846-1.011-1.026a.133.133,0,0,0-.109-.035c-.325.036-.651.068-.978.1-.04,0-.052.03-.047.068s.012.122.019.174c.083.738.151,1.346.228,1.665.049.219.116.384.363.385A3.26,3.26,0,0,0,96.47,20c.049,0,.066.016.069.038s-.033.066-.122.075c-.446.054-.957.089-1,.092,0,0-.521.08-.759.108-.089,0-.13,0-.135-.05s.012-.047.061-.052a1.106,1.106,0,0,0,.238-.057c.16-.047.174-.221.191-.446,0-.328-.061-.936-.139-1.674l-.146-1.354m.705.6a.093.093,0,0,0,.066.085,2.2,2.2,0,0,0,.846.028,1.052,1.052,0,0,0,.575-.219,1.391,1.391,0,0,0,.332-1.243c-.125-.962-.71-1.467-1.537-1.37a2.316,2.316,0,0,0-.521.108.09.09,0,0,0-.052.1q.143,1.258.285,2.514" transform="translate(-16.16 10.517)" fill="#fff"/>
        <path id="Path_125" data-name="Path 125" d="M99.26,14.048c.05-.267.073-.32.118-.326s.083.024.217.245c.156.273,1.935,3.2,2.648,4.263.412.623.669.695.846.712a1.107,1.107,0,0,0,.33-.017c.049,0,.082,0,.089.031s-.061.075-.148.092c-.122.023-.707.137-1.264.224-.155.021-.243.038-.252,0s.016-.05.047-.063.082-.1.01-.215q-.542-.867-1.077-1.736a.068.068,0,0,0-.078-.033c-.566.1-1.134.2-1.7.29a.081.081,0,0,0-.069.073c-.087.478-.174.953-.264,1.431a1.554,1.554,0,0,0-.031.53c.024.153.2.194.347.174l.082-.012c.056-.009.082,0,.087.033s-.038.068-.111.08c-.193.031-.543.063-.632.076s-.521.106-.908.162c-.106.016-.156.009-.163-.038s.026-.05.066-.056.174-.033.233-.05c.363-.1.481-.418.566-.823q.547-2.516,1.019-5.036m1.335,2.909c.04,0,.035-.03.023-.059q-.555-.961-1.1-1.929c-.057-.108-.1-.1-.116.019q-.175,1.089-.347,2.178c-.009.04.009.052.033.049q.755-.125,1.507-.257" transform="translate(-13.544 10.103)" fill="#fff"/>
        <path id="Path_126" data-name="Path 126" d="M107.7,17.282c.1.262.262.669.63.684a1.9,1.9,0,0,0,.533-.066c.04-.012.066-.01.073.019s-.054.087-.149.111c-.174.047-1.042.262-1.335.313-.188.031-.233.017-.241-.019s0-.05.043-.068.014-.146-.036-.278q-.672-1.9-1.337-3.8h-.023q-.464,2.188-.992,4.373c-.092.372-.1.445-.174.46s-.113-.054-.326-.292c-.292-.321-1.259-1.478-1.313-1.545-.1-.12-1.365-1.749-1.488-1.936h-.031q.211,1.789.412,3.582c.017.123.045.259.071.389a.249.249,0,0,0,.257.191,1.555,1.555,0,0,0,.311-.026c.033,0,.068,0,.073.024.01.052-.035.078-.13.1-.3.063-.686.118-.75.13s-.453.116-.669.16c-.082.016-.141.012-.151-.042,0-.023.033-.045.073-.054a1.235,1.235,0,0,0,.236-.071c.255-.1.221-.4.195-.695q-.208-2.529-.445-5.058c-.009-.083.01-.142.057-.153s.082.014.137.089q1.667,2.139,3.421,4.234.628-2.639,1.16-5.274c.014-.076.031-.135.085-.149s.09.042.141.174q.833,2.245,1.681,4.484" transform="translate(-10.914 9.283)" fill="#fff"/>
        <path id="Path_127" data-name="Path 127" d="M106.233,15.05c-.318-1.165-.375-1.374-.455-1.608s-.174-.347-.441-.337a1.7,1.7,0,0,0-.266.047c-.03.009-.064,0-.071-.028s.021-.071.1-.092c.347-.092.809-.2.868-.217s.521-.174.743-.233c.083-.023.125-.019.139.026s-.019.052-.049.061a1.4,1.4,0,0,0-.182.076c-.2.089-.22.238-.161.5s.109.451.434,1.615q.143.521.29,1.042c.3,1.073.677,1.464,1.1,1.674a1.659,1.659,0,0,0,1.309.063,1.75,1.75,0,0,0,1.075-.906,2.871,2.871,0,0,0-.1-1.952l-.286-.924c-.356-1.153-.42-1.36-.509-1.591s-.189-.347-.453-.321a1.518,1.518,0,0,0-.264.056c-.03,0-.064,0-.073-.026s.019-.071.1-.1c.347-.1.759-.21.8-.226s.4-.149.625-.221c.082-.028.123-.024.139.019s-.016.054-.047.064a1.314,1.314,0,0,0-.174.082c-.189.109-.212.247-.146.509s.123.448.484,1.6c.082.264.174.521.247.79a2.882,2.882,0,0,1-.03,2.431,2.478,2.478,0,0,1-1.46,1.042,2.578,2.578,0,0,1-1.778-.061,2.452,2.452,0,0,1-1.216-1.771l-.3-1.091" transform="translate(-7.935 8.412)" fill="#fff"/>
        <path id="Path_128" data-name="Path 128" d="M110.9,16.916c-.127-.014-.144-.042-.21-.24-.122-.366-.189-.67-.221-.79-.019-.085-.016-.127.023-.139s.063,0,.082.063a1.428,1.428,0,0,0,.115.264,1.108,1.108,0,0,0,1.407.347,1.067,1.067,0,0,0,.792-1.285.646.646,0,0,0-.021-.078c-.174-.5-.507-.714-1.346-1l-.439-.149c-1.028-.358-1.36-.754-1.528-1.252a1.451,1.451,0,0,1,.957-1.816q.073-.021.146-.036a3.216,3.216,0,0,1,.719-.174,1.229,1.229,0,0,0,.273-.057c.061-.021.08-.012.094.024s.069.287.247.783c.043.116.047.174,0,.186s-.066-.017-.094-.073a1.321,1.321,0,0,0-.229-.33c-.073-.064-.384-.3-1.071-.054a.9.9,0,0,0-.655,1.089c.007.026.016.052.024.078.142.417.427.616,1.347.91l.269.085c1.137.361,1.518.731,1.726,1.315a1.564,1.564,0,0,1-.226,1.447,2.25,2.25,0,0,1-1.073.721,2.623,2.623,0,0,1-1.115.16" transform="translate(-4.63 7.778)" fill="#fff"/>
      </g>
      <g id="Group_260" data-name="Group 260" transform="translate(0 173.937)">
        <path id="Path_129" data-name="Path 129" d="M15,115a5.472,5.472,0,0,1-3.106,4.972,7.937,7.937,0,0,1-3.95.87c-.511,0-.934,0-1.267-.011l-3.055-.064q-1.639,0-2.531.075l-.128-.128v-.357l.064-.154a4.408,4.408,0,0,0,1.022-.755,6.562,6.562,0,0,0,.141-1.7l.038-2.864v-6.483a28.486,28.486,0,0,0-.167-3.965.559.559,0,0,0-.434-.473,14.261,14.261,0,0,0-1.5-.128L0,103.715v-.87l.128-.115q1.139.077,3.914.077,1.764,0,3.183-.064,1.125-.05,1.9-.051,3.568,0,4.679,1.624a3.392,3.392,0,0,1,.588,1.969,3.833,3.833,0,0,1-1.418,3.031,4.97,4.97,0,0,1-1.407.855,14.382,14.382,0,0,1-1.842.551Q15,110.952,15,115m-4.461-8.094q0-2.826-2.941-2.824a11.178,11.178,0,0,0-1.648.1q-.05,1.343-.051,2.481V110.2c.2.016.588.026,1.176.026q2.314,0,3.044-1.483a4.1,4.1,0,0,0,.421-1.829m.549,8.49q0-3.837-4.027-3.837-.512,0-1.163.04v5.919c0,.641.018,1.265.051,1.879a9.051,9.051,0,0,0,1.469.091,3.458,3.458,0,0,0,2.763-1.126,4.453,4.453,0,0,0,.907-2.967" transform="translate(0 -102.432)" fill="#fff"/>
        <path id="Path_130" data-name="Path 130" d="M24.877,116.487a28.545,28.545,0,0,0-.28,4.219l-.128.128-9.3-.077q-2.326,0-3.286.077l-.128-.128v-.359l.064-.154a4.481,4.481,0,0,0,1.022-.753,6.78,6.78,0,0,0,.141-1.7l.04-2.864v-6.483a28.63,28.63,0,0,0-.168-3.963.555.555,0,0,0-.434-.473,13.728,13.728,0,0,0-1.5-.128L10.8,103.7v-.87l.128-.117q1.29.079,3.989.077,2.405,0,9.142-.077l.141.1-.165,1.419c-.053.452-.09.835-.117,1.149l-.088,1.19-.128.139h-.742l-.127-.127a5.239,5.239,0,0,0-.205-1.982,2.944,2.944,0,0,0-1.376-.282c-.822-.067-1.546-.1-2.166-.1q-1.113,0-2.252.088-.139,1.343-.139,3.721v2.646c.674.043,1.219.064,1.637.064l1.674-.013q1.177-.012,1.33-.192a4.044,4.044,0,0,0,.269-1.725l.128-.128h.791l.128.128q-.05,1.432-.051,2.622,0,1.29.051,2.824l-.128.115h-.855l-.128-.127a4.066,4.066,0,0,0-.205-1.746q-.2-.276-1.24-.365c-.521-.042-1.073-.064-1.661-.064-.623,0-1.2.022-1.74.064v3.9q0,1.675.064,3.247H18.5a19.835,19.835,0,0,0,4.577-.295.416.416,0,0,0,.205-.139,2.305,2.305,0,0,0,.242-.767l.308-1.586.128-.141h.779Z" transform="translate(6.501 -102.42)" fill="#fff"/>
        <path id="Path_131" data-name="Path 131" d="M34.783,116.487a28.533,28.533,0,0,0-.282,4.219l-.128.128-9.3-.077q-2.326,0-3.284.077l-.128-.128v-.359l.064-.154a4.481,4.481,0,0,0,1.022-.753,6.661,6.661,0,0,0,.141-1.7l.038-2.864v-6.483a28.725,28.725,0,0,0-.167-3.963.557.557,0,0,0-.434-.473,13.777,13.777,0,0,0-1.5-.128L20.7,103.7v-.87l.128-.117q1.317.079,3.861.077,2.634,0,4-.077l.128.117v.881l-.128.115a13.676,13.676,0,0,0-1.495.128.555.555,0,0,0-.436.473,28.82,28.82,0,0,0-.165,3.963v7.648c0,1.116.019,2.2.064,3.247H28.4a19.826,19.826,0,0,0,4.577-.295.409.409,0,0,0,.205-.139,2.268,2.268,0,0,0,.242-.767l.309-1.586.127-.141h.78Z" transform="translate(12.463 -102.42)" fill="#fff"/>
        <path id="Path_132" data-name="Path 132" d="M48.336,103.713l-.128.127a4.334,4.334,0,0,0-1.144.211,1.5,1.5,0,0,0-.532.582,22.9,22.9,0,0,0-1.1,2.4l-.908,2.161-1.712,4.168q-2.213,5.37-2.98,7.556H37.89l-5.87-14.231a10.238,10.238,0,0,0-1.3-2.557,2.782,2.782,0,0,0-1.56-.295l-.128-.139v-.844l.141-.141q1.343.077,3.388.077,2.559,0,4.655-.077l.128.141v.857l-.117.127a4.342,4.342,0,0,0-1.7.232.457.457,0,0,0-.218.433,13.107,13.107,0,0,0,.831,2.43l.6,1.522,3.233,7.992,2.84-7.122q.166-.409.766-2.058a15.282,15.282,0,0,0,.87-2.776c0-.28-.093-.45-.282-.511a10.1,10.1,0,0,0-1.712-.141l-.128-.127v-.87l.141-.128q1.444.077,3.005.077,1.113,0,2.723-.077l.141.141Z" transform="translate(17.474 -102.42)" fill="#fff"/>
        <path id="Path_133" data-name="Path 133" d="M55.934,116.487a28.527,28.527,0,0,0-.282,4.219l-.128.128-9.3-.077q-2.326,0-3.284.077l-.128-.128v-.359l.064-.154a4.48,4.48,0,0,0,1.022-.753,6.78,6.78,0,0,0,.141-1.7l.038-2.864v-6.483a28.722,28.722,0,0,0-.167-3.963.557.557,0,0,0-.434-.473,13.779,13.779,0,0,0-1.5-.128l-.128-.127v-.87l.128-.117q1.29.079,3.989.077,2.4,0,9.142-.077l.141.1-.167,1.419q-.077.678-.115,1.149l-.088,1.19-.128.139h-.742l-.128-.127a5.2,5.2,0,0,0-.205-1.982,2.941,2.941,0,0,0-1.375-.282c-.822-.067-1.546-.1-2.167-.1q-1.113,0-2.251.088-.139,1.343-.139,3.721v2.646q1.009.065,1.636.064l1.676-.013q1.175-.012,1.33-.192a4.056,4.056,0,0,0,.268-1.725l.128-.128h.793l.128.128q-.05,1.432-.051,2.622,0,1.29.051,2.824l-.128.115h-.857l-.127-.127a4.065,4.065,0,0,0-.205-1.746c-.136-.184-.551-.306-1.24-.365-.521-.042-1.075-.064-1.663-.064-.622,0-1.2.022-1.738.064v3.9c0,1.116.019,2.2.064,3.247h1.738a19.826,19.826,0,0,0,4.577-.295.409.409,0,0,0,.205-.139,2.268,2.268,0,0,0,.242-.767l.309-1.586.127-.141h.78Z" transform="translate(25.196 -102.42)" fill="#fff"/>
        <path id="Path_134" data-name="Path 134" d="M71.5,110.721a9.79,9.79,0,0,1-2.826,7.186,9.48,9.48,0,0,1-3.35,2.159,12.691,12.691,0,0,1-4.924.78l-4.513-.075q-1.843-.026-3.042.075l-.128-.128v-.357l.064-.154a4.408,4.408,0,0,0,1.022-.755,6.643,6.643,0,0,0,.141-1.7l.038-2.864v-6.483a28.757,28.757,0,0,0-.167-3.965.559.559,0,0,0-.434-.473,14.263,14.263,0,0,0-1.5-.128l-.128-.127v-.87l.128-.115q1.355.077,2.582.077,2.98,0,5.371-.077,1.187-.038,2.39-.038a13.542,13.542,0,0,1,5.1.754,6.5,6.5,0,0,1,3.042,2.608,8.778,8.778,0,0,1,1.126,4.668m-3.926.614a7.875,7.875,0,0,0-1.712-5.447,4.827,4.827,0,0,0-2.238-1.406,12.947,12.947,0,0,0-3.568-.384,15.078,15.078,0,0,0-2.275.167q-.13,1.432-.128,6.93l.024,5.587a22.347,22.347,0,0,0,.1,2.481,14.7,14.7,0,0,0,2.3.179A9.027,9.027,0,0,0,64.1,118.7a5.7,5.7,0,0,0,2.518-2.736,10.545,10.545,0,0,0,.96-4.63" transform="translate(31.158 -102.432)" fill="#fff"/>
        <path id="Path_135" data-name="Path 135" d="M79.424,116.487a28.549,28.549,0,0,0-.28,4.219l-.128.128-9.3-.077q-2.326,0-3.286.077l-.128-.128v-.359l.064-.154a4.484,4.484,0,0,0,1.022-.753,6.781,6.781,0,0,0,.141-1.7l.04-2.864v-6.483a28.628,28.628,0,0,0-.168-3.963.555.555,0,0,0-.434-.473,13.726,13.726,0,0,0-1.5-.128l-.128-.127v-.87l.128-.117q1.29.079,3.989.077,2.405,0,9.142-.077l.141.1-.165,1.419c-.053.452-.09.835-.117,1.149l-.088,1.19-.128.139h-.742l-.126-.127a5.24,5.24,0,0,0-.205-1.982,2.944,2.944,0,0,0-1.376-.282c-.822-.067-1.546-.1-2.166-.1q-1.112,0-2.252.088-.139,1.343-.139,3.721v2.646c.674.043,1.219.064,1.637.064l1.674-.013q1.177-.012,1.33-.192a4.046,4.046,0,0,0,.269-1.725l.128-.128h.791l.128.128q-.05,1.432-.051,2.622,0,1.29.051,2.824l-.128.115h-.855l-.128-.127a4.067,4.067,0,0,0-.2-1.746q-.2-.276-1.24-.365c-.521-.042-1.073-.064-1.661-.064-.623,0-1.2.022-1.74.064v3.9q0,1.675.064,3.247h1.74a19.835,19.835,0,0,0,4.577-.295.416.416,0,0,0,.205-.139,2.306,2.306,0,0,0,.242-.767l.308-1.586.128-.141h.779Z" transform="translate(39.336 -102.42)" fill="#fff"/>
        <path id="Path_136" data-name="Path 136" d="M92.756,120.719l-.127.128c-.061,0-.223,0-.487-.013-1.168-.042-1.9-.064-2.187-.064-.436,0-1.125.026-2.071.077a3.587,3.587,0,0,0-.485-1.024l-3.17-5.293-1.421-2.161a3.562,3.562,0,0,0-.754-.78l.141-.434c.2.008.341.013.436.013a4.1,4.1,0,0,0,1.969-.4,3.373,3.373,0,0,0,1.2-1.253,4,4,0,0,0,.549-2.135,2.906,2.906,0,0,0-1.61-2.916,5.479,5.479,0,0,0-2.238-.357,7.238,7.238,0,0,0-1.227.1q-.13,1.254-.128,4.271v6.688a28.857,28.857,0,0,0,.165,3.965.559.559,0,0,0,.436.473,14.2,14.2,0,0,0,1.5.128l.128.128v.855l-.117.128q-1.276-.077-3.938-.077-2.749,0-3.938.077l-.128-.115v-.868l.128-.128a14.248,14.248,0,0,0,1.5-.128.557.557,0,0,0,.434-.473,28.477,28.477,0,0,0,.167-3.965v-6.765a28.463,28.463,0,0,0-.167-3.963.559.559,0,0,0-.434-.473,13.758,13.758,0,0,0-1.5-.128l-.128-.127v-.87l.128-.115q1.254.077,3.938.075,1.562,0,2.531-.037,1.932-.077,2.892-.077a9.77,9.77,0,0,1,3.247.4,3.034,3.034,0,0,1,1.866,1.817,4.294,4.294,0,0,1,.231,1.483q0,3.477-3.912,4.935.637,1.072,1.354,2.172l1.97,3.031a13.889,13.889,0,0,0,2.315,3.056,1.485,1.485,0,0,0,.819.191l.127.128Z" transform="translate(45.298 -102.432)" fill="#fff"/>
        <path id="Path_137" data-name="Path 137" d="M101,116.487a28.544,28.544,0,0,0-.28,4.219l-.128.128-9.3-.077q-2.326,0-3.286.077l-.128-.128v-.359l.064-.154a4.482,4.482,0,0,0,1.022-.753,6.782,6.782,0,0,0,.141-1.7l.04-2.864v-6.483a28.64,28.64,0,0,0-.168-3.963.555.555,0,0,0-.434-.473,13.728,13.728,0,0,0-1.5-.128l-.128-.127v-.87l.128-.117q1.29.079,3.989.077,2.405,0,9.142-.077l.141.1-.165,1.419c-.053.452-.09.835-.117,1.149l-.088,1.19-.128.139h-.742l-.127-.127a5.238,5.238,0,0,0-.205-1.982,2.943,2.943,0,0,0-1.376-.282c-.822-.067-1.546-.1-2.166-.1q-1.113,0-2.252.088-.139,1.343-.139,3.721v2.646c.674.043,1.219.064,1.637.064l1.674-.013q1.177-.012,1.33-.192a4.043,4.043,0,0,0,.269-1.725l.128-.128h.791l.128.128q-.05,1.432-.051,2.622,0,1.29.051,2.824l-.128.115H97.79l-.128-.127a4.065,4.065,0,0,0-.205-1.746q-.2-.276-1.24-.365c-.521-.042-1.073-.064-1.661-.064-.623,0-1.2.022-1.74.064v3.9q0,1.675.064,3.247h1.74a19.835,19.835,0,0,0,4.577-.295.416.416,0,0,0,.205-.139,2.3,2.3,0,0,0,.242-.767l.308-1.586.128-.141h.779Z" transform="translate(52.321 -102.42)" fill="#fff"/>
        <path id="Path_138" data-name="Path 138" d="M114.454,114.96a6.043,6.043,0,0,1-1.2,3.72,6.267,6.267,0,0,1-2.749,2.111,9.823,9.823,0,0,1-3.72.639,12.153,12.153,0,0,1-5.269-1.229l-.154-.28a18.61,18.61,0,0,0,.359-4.183l.128-.127h.819l.114.127v.295a15.313,15.313,0,0,0,.154,1.894,3.676,3.676,0,0,0,1.65,1.4,5.744,5.744,0,0,0,2.582.615,3.647,3.647,0,0,0,3.5-1.764,3.854,3.854,0,0,0,.5-1.881,2.43,2.43,0,0,0-1.366-2.34,7.705,7.705,0,0,0-2.188-.574,11.437,11.437,0,0,1-4.487-1.318,4.323,4.323,0,0,1-1.624-3.721,5.3,5.3,0,0,1,1.765-4.181,7.61,7.61,0,0,1,5.19-1.637,10.478,10.478,0,0,1,4.833.96l.09.306a22.033,22.033,0,0,0-.37,3.657l-.141.13h-.806l-.127-.13a15.9,15.9,0,0,0-.128-1.994,3.007,3.007,0,0,0-1.383-1.022,5.648,5.648,0,0,0-2.187-.436,3.876,3.876,0,0,0-2.709.908,2.864,2.864,0,0,0-.934,2.211,2.392,2.392,0,0,0,1.061,2.163,10.3,10.3,0,0,0,3.262.855c.178.027.678.112,1.5.256a7.327,7.327,0,0,1,1.394.372,3.861,3.861,0,0,1,1.943,1.483,4.885,4.885,0,0,1,.7,2.71" transform="translate(61.014 -102.531)" fill="#fff"/>
        <path id="Path_139" data-name="Path 139" d="M128.03,118.63l-.588,1.3a12.308,12.308,0,0,1-6.036,1.483q-6.673,0-9.13-4.807a10.419,10.419,0,0,1-1.137-4.82,8.526,8.526,0,0,1,2.786-6.686,11.205,11.205,0,0,1,7.789-2.571,17.083,17.083,0,0,1,6.124,1.139l.165.191a21.447,21.447,0,0,0-.537,4.13l-.114.128H126.6l-.127-.139a17.761,17.761,0,0,0-.141-2.148,5.847,5.847,0,0,0-4.615-1.8A6.207,6.207,0,0,0,116.842,106a7.713,7.713,0,0,0-1.765,5.346,8.338,8.338,0,0,0,3.146,7.007,7.109,7.109,0,0,0,4.489,1.306,10.418,10.418,0,0,0,5-1.318Z" transform="translate(66.9 -102.531)" fill="#fff"/>
        <path id="Path_140" data-name="Path 140" d="M142.882,120.7l-.128.128q-1.266-.077-3.939-.077-2.737,0-3.938.077l-.128-.115v-.868l.141-.128a14.091,14.091,0,0,0,1.495-.128.557.557,0,0,0,.436-.473,28.747,28.747,0,0,0,.167-3.965v-3.082q-.651-.063-4.144-.064-3.22,0-4.243.064v3.082a28.846,28.846,0,0,0,.165,3.965.559.559,0,0,0,.436.473,14.2,14.2,0,0,0,1.5.128l.128.128v.855l-.117.128q-1.276-.077-3.938-.077-2.749,0-3.938.077l-.128-.115v-.868l.128-.128a14.249,14.249,0,0,0,1.5-.128.557.557,0,0,0,.434-.473,28.483,28.483,0,0,0,.167-3.965v-6.765a28.471,28.471,0,0,0-.167-3.963.559.559,0,0,0-.434-.473,13.777,13.777,0,0,0-1.5-.128l-.128-.127v-.87l.128-.115q1.228.077,3.938.075,2.775,0,3.938-.075l.117.115v.883l-.128.114a13.733,13.733,0,0,0-1.5.128.56.56,0,0,0-.436.473,28.834,28.834,0,0,0-.165,3.963V110.5c.9.042,2.148.064,3.733.064q3.736,0,4.655-.064v-2.111a28.735,28.735,0,0,0-.167-3.963.558.558,0,0,0-.436-.473,13.627,13.627,0,0,0-1.495-.128l-.141-.127v-.87l.128-.115q1.24.077,3.938.075,2.787,0,3.939-.075l.128.115v.883l-.115.114a13.383,13.383,0,0,0-1.509.128.555.555,0,0,0-.434.473,28.664,28.664,0,0,0-.168,3.963v6.765a28.676,28.676,0,0,0,.168,3.965.553.553,0,0,0,.434.473,14.141,14.141,0,0,0,1.5.128l.128.128Z" transform="translate(73.862 -102.42)" fill="#fff"/>
        <path id="Path_141" data-name="Path 141" d="M155.97,111.418a9.864,9.864,0,0,1-2.749,7.4,10,10,0,0,1-7.3,2.61,9.354,9.354,0,0,1-6.868-2.462,9.186,9.186,0,0,1-2.493-6.848q0-6.149,4.692-8.514a11.617,11.617,0,0,1,5.256-1.075,9.719,9.719,0,0,1,6.943,2.34,8.564,8.564,0,0,1,2.518,6.547m-3.938.665a10.287,10.287,0,0,0-1.49-5.889,4.952,4.952,0,0,0-4.365-2.18,4.881,4.881,0,0,0-5.04,3.415,11.42,11.42,0,0,0-.639,3.925,11.546,11.546,0,0,0,1.458,6.239,5,5,0,0,0,4.514,2.366,4.818,4.818,0,0,0,4.9-3.593,12.983,12.983,0,0,0,.665-4.284" transform="translate(82.204 -102.531)" fill="#fff"/>
        <path id="Path_142" data-name="Path 142" d="M169.587,111.418a9.865,9.865,0,0,1-2.749,7.4,10,10,0,0,1-7.3,2.61,9.355,9.355,0,0,1-6.868-2.462,9.186,9.186,0,0,1-2.493-6.848q0-6.149,4.692-8.514a11.617,11.617,0,0,1,5.256-1.075,9.719,9.719,0,0,1,6.943,2.34,8.564,8.564,0,0,1,2.518,6.547m-3.938.665a10.286,10.286,0,0,0-1.49-5.889,4.952,4.952,0,0,0-4.365-2.18,4.881,4.881,0,0,0-5.04,3.415,11.42,11.42,0,0,0-.639,3.925,11.544,11.544,0,0,0,1.458,6.239,5,5,0,0,0,4.514,2.366,4.818,4.818,0,0,0,4.9-3.593,12.982,12.982,0,0,0,.665-4.284" transform="translate(90.4 -102.531)" fill="#fff"/>
        <path id="Path_143" data-name="Path 143" d="M177.634,116.487a28.521,28.521,0,0,0-.282,4.219l-.128.128-9.3-.077q-2.326,0-3.284.077l-.128-.128v-.359l.064-.154a4.482,4.482,0,0,0,1.022-.753,6.657,6.657,0,0,0,.141-1.7l.039-2.864v-6.483a28.725,28.725,0,0,0-.167-3.963.557.557,0,0,0-.434-.473,13.775,13.775,0,0,0-1.5-.128l-.128-.127v-.87l.128-.117q1.317.079,3.861.077,2.634,0,4-.077l.128.117v.881l-.128.115a13.68,13.68,0,0,0-1.495.128.555.555,0,0,0-.436.473,28.821,28.821,0,0,0-.165,3.963v7.648c0,1.116.019,2.2.064,3.247h1.738a19.827,19.827,0,0,0,4.577-.295.409.409,0,0,0,.205-.139,2.266,2.266,0,0,0,.242-.767l.309-1.586.127-.141h.78Z" transform="translate(98.453 -102.42)" fill="#fff"/>
      </g>
      <g id="Group_259" data-name="Group 259" transform="translate(96.143 202.173)">
        <path id="Path_144" data-name="Path 144" d="M76.923,136.432l-.487,1.189a13.159,13.159,0,0,1-6.062,1.445,10.715,10.715,0,0,1-7.5-2.621,8.826,8.826,0,0,1-2.882-6.855,9.029,9.029,0,0,1,1.437-5.094,8.922,8.922,0,0,1,3.8-3.261,12.563,12.563,0,0,1,5.3-1.08,15.9,15.9,0,0,1,3.361.357,14.227,14.227,0,0,1,2.776.857l.088.128a16.375,16.375,0,0,0-.548,3.542l-.091.1h-.6l-.1-.1-.128-2.174a6.922,6.922,0,0,0-2.259-1.157,9.124,9.124,0,0,0-2.754-.417,8,8,0,0,0-3.874.928,6.442,6.442,0,0,0-2.659,2.685,8.958,8.958,0,0,0-.945,4.3,8.814,8.814,0,0,0,1.112,4.489,7.615,7.615,0,0,0,3.036,2.967,9.357,9.357,0,0,0,4.493,1.035,10.677,10.677,0,0,0,2.187-.218,8.31,8.31,0,0,0,1.744-.537,7.9,7.9,0,0,0,1.336-.78Z" transform="translate(-59.994 -120.155)" fill="#fff"/>
        <path id="Path_145" data-name="Path 145" d="M71.411,138.624l-.115-.1v-.665l.115-.1a5.448,5.448,0,0,0,1.2-.1,1.019,1.019,0,0,0,.481-.332,10.411,10.411,0,0,0,.849-1.631l1.342-2.915,3.479-7.877q.983-2.314,1.956-4.629h.83l5.463,12.839.727,1.712c.215.485.458,1.014.735,1.586a4.947,4.947,0,0,0,.575,1.011,1.087,1.087,0,0,0,.4.235,4.233,4.233,0,0,0,1.054.1l.1.1v.665l-.1.1q-1.355-.115-2.441-.115-2.124.065-4.245.115l-.1-.1v-.665l.1-.1a10.257,10.257,0,0,0,1.789-.123.423.423,0,0,0,.357-.441,2.193,2.193,0,0,0-.178-.742l-1.571-3.9h-7.4l-1.4,3.271a3.879,3.879,0,0,0-.37,1.293.5.5,0,0,0,.346.473,5.785,5.785,0,0,0,1.738.168l.115.1v.665l-.1.1q-1.651-.1-2.892-.1-1.406,0-2.839.1m5.831-7.173h6.47l-3.21-7.71Z" transform="translate(-53.19 -120.082)" fill="#fff"/>
        <path id="Path_146" data-name="Path 146" d="M84.241,120.387l1.6.051q1.571.05,2.058.05.435,0,3.668-.1l.1.09v.639l-.1.09q-.882.024-1.36.077a1.645,1.645,0,0,0-.7.192.9.9,0,0,0-.287.658,11.366,11.366,0,0,0-.071,1.437l-.026,2.941v5.921l.013,2.493a18.051,18.051,0,0,0,.075,1.866,1.215,1.215,0,0,0,.187.564.959.959,0,0,0,.466.235,9.878,9.878,0,0,0,1.7.147l.1.077v.639l-.1.1q-.062,0-2.249-.077c-.606-.018-1.08-.026-1.419-.026q-.4,0-3.657.1l-.1-.1v-.639l.1-.077a13.308,13.308,0,0,0,1.586-.127,1.169,1.169,0,0,0,.53-.2,1.009,1.009,0,0,0,.218-.517,12.074,12.074,0,0,0,.1-1.765l.011-2.7v-5.921l-.024-2.493q-.014-1.459-.07-1.879a1.193,1.193,0,0,0-.179-.564.93.93,0,0,0-.466-.229,10.978,10.978,0,0,0-1.7-.141l-.1-.09v-.639Z" transform="translate(-45.458 -120.016)" fill="#fff"/>
        <path id="Path_147" data-name="Path 147" d="M89.575,120.48l.1-.09q2.341.1,3.644.1,1.444,0,3.9-.09c.606-.018,1.046-.024,1.318-.024q3.234,0,4.386,1.176a3.846,3.846,0,0,1,1.15,2.786,4.381,4.381,0,0,1-.562,2.111,5.016,5.016,0,0,1-1.663,1.77,8.253,8.253,0,0,1-3.029,1.105q.356.5,1.291,1.728l1.815,2.4q.882,1.189,1.894,2.512a8.04,8.04,0,0,0,1.3,1.5,1.56,1.56,0,0,0,.5.21,3.914,3.914,0,0,0,.67.04l.1.1v.6l-.115.117a11.612,11.612,0,0,0-1.458-.077c-.6,0-1.267.024-1.982.077q-.882-1.076-2.775-3.721-2.2-3.068-4.5-5.69l.128-.4c.444.026.788.038,1.036.038a5.206,5.206,0,0,0,3.465-1.06,3.65,3.65,0,0,0,1.253-2.941,3.01,3.01,0,0,0-1.126-2.55,4.879,4.879,0,0,0-3.044-.863,8.486,8.486,0,0,0-2.531.37,25.773,25.773,0,0,0-.192,4.8v5.919l.013,2.494a17.936,17.936,0,0,0,.077,1.866,1.192,1.192,0,0,0,.186.562.962.962,0,0,0,.466.237,9.966,9.966,0,0,0,1.7.146l.1.077v.641l-.1.1c-.043,0-.791-.024-2.251-.077q-.908-.024-1.418-.024-.4,0-3.659.1l-.1-.1v-.641l.1-.077a12.926,12.926,0,0,0,1.586-.126,1.176,1.176,0,0,0,.532-.2,1.036,1.036,0,0,0,.218-.517,12.145,12.145,0,0,0,.095-1.765l.013-2.7v-5.919l-.026-2.494q-.014-1.458-.071-1.879a1.144,1.144,0,0,0-.179-.562.916.916,0,0,0-.466-.231,11.174,11.174,0,0,0-1.7-.141l-.1-.09Z" transform="translate(-42.188 -120.023)" fill="#fff"/>
        <path id="Path_148" data-name="Path 148" d="M100.542,129.778a11.273,11.273,0,0,1,.551-3.579,8.282,8.282,0,0,1,1.873-3.076,9.051,9.051,0,0,1,3.19-2.187,10.964,10.964,0,0,1,4.22-.774,9.872,9.872,0,0,1,6.944,2.372,8.363,8.363,0,0,1,2.582,6.477,10.6,10.6,0,0,1-1.266,5.19,8.864,8.864,0,0,1-3.627,3.58,10.92,10.92,0,0,1-5.3,1.278,10.284,10.284,0,0,1-3.835-.7,7.826,7.826,0,0,1-2.984-2.078,8.43,8.43,0,0,1-1.789-3.2,11.372,11.372,0,0,1-.557-3.313m2.659-.843a12.464,12.464,0,0,0,.5,3.358,8.846,8.846,0,0,0,1.509,3.08,6.488,6.488,0,0,0,2.315,1.911,7.35,7.35,0,0,0,6.515-.282,5.69,5.69,0,0,0,2.352-2.819,10.913,10.913,0,0,0,.806-4.288,11.42,11.42,0,0,0-.92-4.666,6.169,6.169,0,0,0-2.622-3.031,7.6,7.6,0,0,0-3.771-.947,6.331,6.331,0,0,0-4.9,1.943,8.211,8.211,0,0,0-1.789,5.741" transform="translate(-35.587 -120.149)" fill="#fff"/>
      </g>
    </g>
  </g>
</svg>
